<svg width="71" height="14" viewBox="0 0 71 14" fill="none" xmlns="http://www.w3.org/2000/svg">
<path fill-rule="evenodd" clip-rule="evenodd" d="M6 13C9.31371 13 12 10.3137 12 7C12 3.68629 9.31371 1 6 1C2.68629 1 0 3.68629 0 7C0 10.3137 2.68629 13 6 13Z" fill="#92E3A9"/>
<path fill-rule="evenodd" clip-rule="evenodd" d="M35 13C38.3137 13 41 10.3137 41 7C41 3.68629 38.3137 1 35 1C31.6863 1 29 3.68629 29 7C29 10.3137 31.6863 13 35 13Z" stroke="black"/>
<path fill-rule="evenodd" clip-rule="evenodd" d="M64 13C67.3137 13 70 10.3137 70 7C70 3.68629 67.3137 1 64 1C60.6863 1 58 3.68629 58 7C58 10.3137 60.6863 13 64 13Z" stroke="black"/>
</svg>
